<svg xmlns="http://www.w3.org/2000/svg" fill="none" viewBox="0 0 16 16"><path fill="#fff" d="M2.5 14h11c.275 0 .5-.225.5-.5v-11c0-.275-.225-.5-.5-.5h-11c-.275 0-.5.225-.5.5v11c0 .275.225.5.5.5z"/><path fill="#605E5C" fill-rule="evenodd" d="M2.5 15h11c.827 0 1.5-.673 1.5-1.5v-11c0-.827-.673-1.5-1.5-1.5h-11C1.673 1 1 1.673 1 2.5v11c0 .827.673 1.5 1.5 1.5zM2 2.5a.5.5 0 0 1 .5-.5h11a.5.5 0 0 1 .5.5v11a.5.5 0 0 1-.5.5h-11a.5.5 0 0 1-.5-.5v-11z" clip-rule="evenodd" opacity=".64"/><path stroke="#E8467C" stroke-linecap="round" stroke-linejoin="round" d="M5.5 11.5a1 1 0 1 0 0-2 1 1 0 0 0 0 2zm5-1a1 1 0 1 0 0-2 1 1 0 0 0 0 2z" clip-rule="evenodd"/><path fill="#E8467C" d="M11.5 4.5h.5a.5.5 0 0 0-.598-.49l.098.49zm-5 1-.098-.49A.5.5 0 0 0 6 5.5h.5zm5.5 4v-5h-1v5h1zm-.598-5.49-5 1 .196.98 5-1-.196-.98zM6 5.5v5h1v-5H6zm5.402.01-5 1 .196.98 5-1-.196-.98z"/></svg>